# xmcd
#
# Track frame offsets: 
#        150
#        10815
#        23627
#        33387
#        44420
#        56035
#        66367
#        80415
#        93007
#        103475
#        112022
#        122482
#        133702
#
# Disc length: 1912 seconds
#
# Revision: 0
# Processed by: cddbd v1.5.2PL0 Copyright (c) Steve Scherf et al.
# Submitted via: ExactAudioCopy v1.0b4
#
DISCID=ac07760d
DTITLE=Trio Nordestino - Trio Nordestino - Brasil Popular
DYEAR=1900
DGENRE=
TTITLE0=01. Cuidado Com As Coisa
TTITLE1=02. Machucando Sim
TTITLE2=03. Procurando Tu
TTITLE3=04. É Madrugada
TTITLE4=05. Já Faz Tempo Não Lhe Vejo
TTITLE5=06. Estou Roendo Sim
TTITLE6=07. Uma Prece Para Os Homens Sem Deus
TTITLE7=08. Moda Da Mula Preta
TTITLE8=09. Coração Em Festa
TTITLE9=10. Ninguém Pode Com Você
TTITLE10=11. Amor Pra Todo Lado
TTITLE11=12. No Meio Das Meninas
TTITLE12=13. Intupidinho De Amor
EXTD=
EXTT0=
EXTT1=
EXTT2=
EXTT3=
EXTT4=
EXTT5=
EXTT6=
EXTT7=
EXTT8=
EXTT9=
EXTT10=
EXTT11=
EXTT12=
PLAYORDER=
